<svg id="Layer_1" data-name="Layer 1" xmlns="http://www.w3.org/2000/svg" viewBox="0 0 725.89 645.57"><defs><style>.cls-1{fill:#2274f0;}.cls-2{fill:#fff;}</style></defs><rect class="cls-1" width="725.89" height="645.57"/><path class="cls-2" d="M657.57,539.7a22.47,22.47,0,0,0,.46-2.78c0-41.29.22-82.59-.34-123.87-.08-6.3-2.78-13.25-6.05-18.69-10.09-16.82-25.69-25-43.61-29.06a8.68,8.68,0,0,1-5.36-3.75c-14.32-27.86-28.5-51.65-42.55-79.67-6.08-12.1-12.49-23.67-24-31.15-15.43-10-32.37-12.58-49.93-12.58q-125.87,0-251.75.06a128.55,128.55,0,0,0-21.91,1.72c-18.05,3.14-34.14,10.7-44.25,27.77-7.78,13.14-14.5,27-21.47,40.67-9.88,19.4-19.52,34.76-29.4,54.15-.66,1.28-2.43,2.19-3.87,2.71-7.21,2.64-14.93,4.18-21.65,7.8-18.48,10-30,24.89-29.75,48.45.41,37.21.1,74.43.12,111.64,0,2,.19,4.08.33,6.69h47.76c0,12.79.15,8.31,0,20.49-.24,14.9,6.25,25.48,18.42,32,17,9,34.54,9.08,51.74,1,13.34-6.26,20.6-17.3,20-33.49-.35-10.26-.08-3.87-.06-14.15,0-1.87.17-3.75.26-5.68h319c.08,2,.22,3.76.22,5.49,0,11.16,0,5.65,0,16.81,0,10.87,4.08,19.81,12.36,25.91,18.31,13.49,38,14,58,4.87,13.29-6.1,20.23-17.23,19.83-33.11-.26-10.27,0-3.87,0-14.15V539.7ZM220.39,116.89c8.48-4.85,16.3-9.75,24.49-13.91,21.67-11,44.7-18,68.66-21.9a265.89,265.89,0,0,1,96.81,1.81c28.31,5.74,54.91,15.82,79.08,31.82,2.48,1.65,4.08,1.36,6.21-.22,5.51-4.07,11.13-8,16.71-12l10.87-7.79c-56.63-37.23-118.55-50.45-184.45-47-53.27,2.79-103,17.25-148,48.05Zm16.76,27.28c.1.22.14.53.31.65,9.17,6.64,18.31,13.32,27.61,19.78.86.6,2.91.1,4.1-.5,8.95-4.45,17.52-9.81,26.76-13.48,25.22-10,51.56-13.06,78.5-10.41,25.29,2.49,49.14,9.52,70.5,23.72,1.95,1.3,3.16.94,4.85-.32,5.38-4,10.9-7.84,16.34-11.79,3.65-2.66,7.24-5.4,11-8.19C410.4,96.11,298.53,98.63,237.15,144.17Zm194.54,48c-45.5-31.73-115.74-25.74-149,.32.09.23.1.56.27.68,8.74,6.33,17.46,12.69,26.29,18.87.76.53,2.43.24,3.47-.18,7.77-3.16,15.23-7.39,23.27-9.5,20.8-5.47,41.26-3.32,60.29,6.72,5.57,2.94,8.87,3,13.57-.88C416.7,202.48,424.2,197.56,431.69,192.13Z"/><path class="cls-2" d="M220.39,116.89,190.77,95.76c45-30.8,94.73-45.26,148-48.05,65.9-3.45,127.82,9.77,184.45,47l-10.87,7.79c-5.58,4-11.2,7.92-16.71,12-2.13,1.58-3.73,1.87-6.21.22-24.17-16-50.77-26.08-79.08-31.82a265.89,265.89,0,0,0-96.81-1.81c-24,3.94-47,10.87-68.66,21.9C236.69,107.14,228.87,112,220.39,116.89Z"/><path class="cls-2" d="M237.15,144.17c61.38-45.54,173.25-48.06,240-.54-3.74,2.79-7.33,5.53-11,8.19-5.44,4-11,7.77-16.34,11.79-1.69,1.26-2.9,1.62-4.85.32-21.36-14.2-45.21-21.23-70.5-23.72-26.94-2.65-53.28.41-78.5,10.41-9.24,3.67-17.81,9-26.76,13.48-1.19.6-3.24,1.1-4.1.5-9.3-6.46-18.44-13.14-27.61-19.78C237.29,144.7,237.25,144.39,237.15,144.17Z"/><path class="cls-2" d="M431.69,192.13c-7.49,5.43-15,10.35-21.86,16-4.7,3.89-8,3.82-13.57.88-19-10-39.49-12.19-60.29-6.72-8,2.11-15.5,6.34-23.27,9.5-1,.42-2.71.71-3.47.18-8.83-6.18-17.55-12.54-26.29-18.87-.17-.12-.18-.45-.27-.68C316,166.39,386.19,160.4,431.69,192.13Z"/><path class="cls-2" d="M168.48,362.76c3.65-7.59,7-14.62,10.4-21.66,8.26-17.34,16.74-30.39,24.69-47.88,6.31-13.91,16-20.45,30.8-20.4,83.71.26,167.43.39,251.14-.1,16.69-.1,27.17,6.87,34.22,22.55,9.89,22,20.68,39.38,31.07,61.13.88,1.85,1.61,3.78,2.71,6.36Z"/><path class="cls-2" d="M563.25,466.19c-11.94-.5-23.23-4-32.34-13.39-10.29-10.6-10.88-25.87-1.56-37.13,16.36-19.78,52.2-19.92,68.74-.27,10.31,12.24,9,28.73-3,39.22C586,462.63,575.32,465.87,563.25,466.19Z"/><path d="M657.7,413.05c-.08-6.3-2.79-13.25-6-18.7-10.1-16.79-25.7-25-43.63-29.06a8.7,8.7,0,0,1-5.34-3.73c-14.35-27.86-28.53-51.65-42.58-79.69-6.05-12.1-12.47-23.66-24-31.15-15.43-10-32.36-12.58-49.92-12.58q-125.88,0-251.75.09a129.81,129.81,0,0,0-21.94,1.68c-18.06,3.15-34.12,10.72-44.25,27.78-7.76,13.16-14.48,27-21.44,40.67-9.89,19.41-19.52,34.77-29.4,54.18-.67,1.28-2.47,2.17-3.88,2.7-7.22,2.62-14.94,4.17-21.65,7.8-18.48,9.92-30,24.9-29.78,48.42.42,37.22.13,74.43.13,111.65,0,2,.2,4.08.33,6.69h47.75c0,12.8.17,8.31,0,20.49-.25,14.93,6.26,25.47,18.44,32,17,9,34.53,9.08,51.72,1C193.78,587,201,576,200.5,559.8c-.38-10.28-.09-3.87-.09-14.15.05-1.91.17-3.77.3-5.72H519.65c.08,2,.21,3.77.21,5.5,0,11.16,0,5.64,0,16.81,0,10.9,4.09,19.8,12.35,25.92,18.31,13.51,38,14,58,4.87,13.27-6.11,20.23-17.23,19.81-33.1-.25-10.27,0-3.87,0-14.15v-6.07h47.55a21.51,21.51,0,0,0,.46-2.79C658,495.63,658.25,454.34,657.7,413.05ZM168.47,362.76c3.67-7.58,7-14.62,10.42-21.67,8.26-17.32,16.73-30.38,24.69-47.88,6.3-13.91,16-20.43,30.79-20.38,83.7.26,167.41.4,251.16-.13,16.69-.09,27.15,6.91,34.2,22.55,9.89,22,20.69,39.42,31.08,61.17.87,1.82,1.62,3.77,2.71,6.34Z"/><rect x="62.12" y="363.78" width="64.22" height="24.12"/><rect x="603.56" y="362.76" width="54.2" height="55.92"/><path class="cls-2" d="M185.82,450.18c0,22-13.77,45.93-37.2,56.83-14.59,7.22-34.32,8.8-51,8.8H62.11V492.94H96.22c14.18,0,25.69-.36,37.81-6.52,15-6.86,22.81-22.17,22.81-36.24A43.12,43.12,0,0,0,141,417.45c-15-10.91-32.47-10.91-50.35-10.91v75.84H62.11V383.66H97c21.16,0,46.44,3,63.5,15.31C176.57,411.64,185.82,431.35,185.82,450.18Z"/><path class="cls-2" d="M269.43,515.63l-34.38-43.11V446.66h11.6c15,0,27-6.34,27-20.06s-12.61-20.06-27-20.06H228.34V515.63H200.27V383.49h46.78c13.23,0,26.25,1.76,36.82,9.32,11.6,7.39,17.9,19.19,17.9,31.68,0,11.26-5.29,23.93-14.44,31.32-7.73,6.68-15.05,8.8-25.22,10.91l41.08,48.91Z"/><path class="cls-2" d="M322.53,383.14h28.08V515.46H322.53Z"/><path class="cls-2" d="M492.79,450.18c0,22-13.63,45.93-36.82,56.83-14.44,7.22-34,8.8-50.44,8.8H370.34V492.94H404.1c14,0,25.43-.36,37.43-6.52,14.85-6.86,22.58-22.17,22.58-36.24a43.29,43.29,0,0,0-15.66-32.73c-14.85-10.91-32.14-10.91-49.84-10.91v75.84H370.34V383.66h34.58c20.95,0,46,3,62.85,15.31C483.64,411.64,492.79,431.35,492.79,450.18Z"/><path class="cls-2" d="M657.37,461.26H571.94V439.44h57.77c-3.87-14.77-20.55-33.78-48.22-33.78-25.22,0-43.73,17.24-47.6,33.78l-1.42,10.74,1.42,11.08C539.18,479,558.1,494,581.49,494c18.72,0,34.38-9.5,42.11-21.11h30.11c-11,24.81-38.24,42.93-72.22,42.93-43.32,0-76.27-30.09-76.27-66,0-36.43,34-66.17,76.27-66.17,43.94,0,76.9,30.62,76.9,66.52C658.39,453.87,658.39,458.1,657.37,461.26Z"/></svg>